<mxfile host="Electron" modified="2025-05-24T15:39:54.452Z" agent="Mozilla/5.0 (Windows NT 10.0; Win64; x64) AppleWebKit/537.36 (KHTML, like Gecko) draw.io/24.4.13 Chrome/124.0.6367.207 Electron/30.0.6 Safari/537.36" etag="5I0B6-FFN3VR_lxmHqM6" version="24.4.13" type="device">
  <diagram name="Socket通信" id="iVbEkLIEtCKWb-fbHnBo">
    <mxGraphModel dx="1434" dy="844" grid="1" gridSize="10" guides="1" tooltips="1" connect="1" arrows="1" fold="1" page="1" pageScale="1" pageWidth="1654" pageHeight="2336" math="0" shadow="0">
      <root>
        <mxCell id="0" />
        <mxCell id="1" parent="0" />
        <mxCell id="WHByOSLi8lRm5YZqNf9Y-10" style="edgeStyle=orthogonalEdgeStyle;rounded=0;orthogonalLoop=1;jettySize=auto;html=1;entryX=0.5;entryY=0;entryDx=0;entryDy=0;startArrow=classic;startFill=1;flowAnimation=1;" edge="1" parent="1" source="bDUntO83Lt_0PTI1Tjjv-1" target="WHByOSLi8lRm5YZqNf9Y-4">
          <mxGeometry relative="1" as="geometry" />
        </mxCell>
        <mxCell id="WHByOSLi8lRm5YZqNf9Y-11" value="&lt;b&gt;&lt;font color=&quot;#ff0000&quot;&gt;③&amp;nbsp; &amp;nbsp;网络通信&lt;/font&gt;&lt;/b&gt;" style="edgeLabel;html=1;align=center;verticalAlign=middle;resizable=0;points=[];" vertex="1" connectable="0" parent="WHByOSLi8lRm5YZqNf9Y-10">
          <mxGeometry x="0.0063" y="-3" relative="1" as="geometry">
            <mxPoint x="-11" y="-11" as="offset" />
          </mxGeometry>
        </mxCell>
        <mxCell id="bDUntO83Lt_0PTI1Tjjv-1" value="Socket" style="ellipse;whiteSpace=wrap;html=1;fillColor=#dae8fc;strokeColor=#6c8ebf;" parent="1" vertex="1">
          <mxGeometry x="480" y="190" width="120" height="50" as="geometry" />
        </mxCell>
        <mxCell id="WHByOSLi8lRm5YZqNf9Y-8" style="edgeStyle=orthogonalEdgeStyle;rounded=0;orthogonalLoop=1;jettySize=auto;html=1;entryX=0;entryY=0.5;entryDx=0;entryDy=0;exitX=0.5;exitY=0;exitDx=0;exitDy=0;flowAnimation=1;fontSize=15;" edge="1" parent="1" source="WHByOSLi8lRm5YZqNf9Y-3" target="bDUntO83Lt_0PTI1Tjjv-1">
          <mxGeometry relative="1" as="geometry">
            <Array as="points">
              <mxPoint x="300" y="215" />
            </Array>
          </mxGeometry>
        </mxCell>
        <mxCell id="WHByOSLi8lRm5YZqNf9Y-9" value="② 创建 Socket" style="edgeLabel;html=1;align=center;verticalAlign=middle;resizable=0;points=[];" vertex="1" connectable="0" parent="WHByOSLi8lRm5YZqNf9Y-8">
          <mxGeometry x="0.0979" y="2" relative="1" as="geometry">
            <mxPoint as="offset" />
          </mxGeometry>
        </mxCell>
        <mxCell id="WHByOSLi8lRm5YZqNf9Y-3" value="ServerSocket" style="rounded=1;whiteSpace=wrap;html=1;fillColor=#ffe6cc;strokeColor=#d79b00;" vertex="1" parent="1">
          <mxGeometry x="240" y="270" width="120" height="60" as="geometry" />
        </mxCell>
        <mxCell id="WHByOSLi8lRm5YZqNf9Y-6" style="edgeStyle=orthogonalEdgeStyle;rounded=0;orthogonalLoop=1;jettySize=auto;html=1;entryX=1;entryY=0.5;entryDx=0;entryDy=0;flowAnimation=1;" edge="1" parent="1" source="WHByOSLi8lRm5YZqNf9Y-4" target="WHByOSLi8lRm5YZqNf9Y-5">
          <mxGeometry relative="1" as="geometry" />
        </mxCell>
        <mxCell id="WHByOSLi8lRm5YZqNf9Y-7" value="① 发起请求" style="edgeLabel;html=1;align=center;verticalAlign=middle;resizable=0;points=[];" vertex="1" connectable="0" parent="WHByOSLi8lRm5YZqNf9Y-6">
          <mxGeometry x="0.122" y="2" relative="1" as="geometry">
            <mxPoint y="8" as="offset" />
          </mxGeometry>
        </mxCell>
        <mxCell id="WHByOSLi8lRm5YZqNf9Y-4" value="Socket" style="ellipse;whiteSpace=wrap;html=1;fillColor=#dae8fc;strokeColor=#6c8ebf;" vertex="1" parent="1">
          <mxGeometry x="800" y="275" width="120" height="50" as="geometry" />
        </mxCell>
        <mxCell id="WHByOSLi8lRm5YZqNf9Y-5" value="accept" style="ellipse;whiteSpace=wrap;html=1;fillColor=#d5e8d4;strokeColor=#82b366;" vertex="1" parent="1">
          <mxGeometry x="340" y="280" width="90" height="40" as="geometry" />
        </mxCell>
      </root>
    </mxGraphModel>
  </diagram>
</mxfile>
